<?xml version="1.0" encoding="UTF-8" standalone="no"?>
<!-- Created with Inkscape (http://www.inkscape.org/) -->

<svg
   width="135mm"
   height="135mm"
   viewBox="0 0 135.00002 134.99998"
   version="1.1"
   id="svg1"
   inkscape:version="1.3.2 (091e20e, 2023-11-25, custom)"
   sodipodi:docname="Current Logo - square canvas.svg"
   inkscape:export-filename="Current Logo - fitted canvas.png"
   inkscape:export-xdpi="96"
   inkscape:export-ydpi="96"
   xmlns:inkscape="http://www.inkscape.org/namespaces/inkscape"
   xmlns:sodipodi="http://sodipodi.sourceforge.net/DTD/sodipodi-0.dtd"
   xmlns:xlink="http://www.w3.org/1999/xlink"
   xmlns="http://www.w3.org/2000/svg"
   xmlns:svg="http://www.w3.org/2000/svg">
  <sodipodi:namedview
     id="namedview1"
     pagecolor="#ffffff"
     bordercolor="#000000"
     borderopacity="0.25"
     inkscape:showpageshadow="true"
     inkscape:pageopacity="0.0"
     inkscape:pagecheckerboard="0"
     inkscape:deskcolor="#d1d1d1"
     inkscape:document-units="px"
     showborder="false"
     inkscape:zoom="0.70710678"
     inkscape:cx="103.9447"
     inkscape:cy="253.85133"
     inkscape:window-width="1920"
     inkscape:window-height="1017"
     inkscape:window-x="-8"
     inkscape:window-y="-8"
     inkscape:window-maximized="1"
     inkscape:current-layer="layer1"
     showguides="true"
     borderlayer="true"
     inkscape:export-bgcolor="#ff000000" />
  <defs
     id="defs1">
    <linearGradient
       id="linearGradient65"
       inkscape:collect="always">
      <stop
         style="stop-color:#0000ff;stop-opacity:1;"
         offset="0"
         id="stop64" />
      <stop
         style="stop-color:#29ff00;stop-opacity:1;"
         offset="0.99037683"
         id="stop65" />
    </linearGradient>
    <linearGradient
       id="linearGradient63"
       inkscape:collect="always">
      <stop
         style="stop-color:#29ff00;stop-opacity:1;"
         offset="0"
         id="stop60" />
      <stop
         style="stop-color:#0313ec;stop-opacity:1;"
         offset="0.31036273"
         id="stop61" />
      <stop
         style="stop-color:#29ff00;stop-opacity:1;"
         offset="0.92510808"
         id="stop62" />
      <stop
         style="stop-color:#0109f6;stop-opacity:1;"
         offset="1"
         id="stop63" />
    </linearGradient>
    <linearGradient
       id="linearGradient56"
       inkscape:collect="always">
      <stop
         style="stop-color:#29ff00;stop-opacity:1;"
         offset="0"
         id="stop53" />
      <stop
         style="stop-color:#0313ec;stop-opacity:1;"
         offset="0.32315978"
         id="stop54" />
      <stop
         style="stop-color:#29ff00;stop-opacity:1;"
         offset="0.63774204"
         id="stop55" />
      <stop
         style="stop-color:#0109f6;stop-opacity:1;"
         offset="0.87466109"
         id="stop56" />
    </linearGradient>
    <linearGradient
       id="linearGradient52"
       inkscape:collect="always">
      <stop
         style="stop-color:#29ff00;stop-opacity:1;"
         offset="0.02528558"
         id="stop51" />
      <stop
         style="stop-color:#0000ff;stop-opacity:1;"
         offset="0.92508835"
         id="stop52" />
    </linearGradient>
    <linearGradient
       id="linearGradient50"
       inkscape:collect="always">
      <stop
         style="stop-color:#29ff00;stop-opacity:1;"
         offset="0.12437689"
         id="stop49" />
      <stop
         style="stop-color:#0109f6;stop-opacity:1;"
         offset="0.7049858"
         id="stop50" />
    </linearGradient>
    <linearGradient
       id="swatch46"
       inkscape:swatch="solid">
      <stop
         style="stop-color:#0316e9;stop-opacity:1;"
         offset="0"
         id="stop46" />
    </linearGradient>
    <linearGradient
       id="linearGradient35"
       inkscape:collect="always">
      <stop
         style="stop-color:#29ff00;stop-opacity:1;"
         offset="0.17235188"
         id="stop35" />
      <stop
         style="stop-color:#0000ff;stop-opacity:1;"
         offset="0.89766604"
         id="stop34" />
    </linearGradient>
    <linearGradient
       inkscape:collect="always"
       xlink:href="#linearGradient56"
       id="linearGradient13"
       gradientUnits="userSpaceOnUse"
       gradientTransform="translate(205.48269,75.195162)"
       x1="106.10412"
       y1="174.41623"
       x2="137.21976"
       y2="44.106098"
       spreadMethod="pad" />
    <linearGradient
       inkscape:collect="always"
       xlink:href="#linearGradient52"
       id="linearGradient15"
       gradientUnits="userSpaceOnUse"
       gradientTransform="matrix(0.61331945,0,0,0.61331945,186.18751,-83.903394)"
       x1="72.794464"
       y1="185.44586"
       x2="70.909286"
       y2="248.93048" />
    <linearGradient
       inkscape:collect="always"
       xlink:href="#linearGradient65"
       id="linearGradient16"
       gradientUnits="userSpaceOnUse"
       gradientTransform="translate(205.48269,75.195162)"
       x1="75.339035"
       y1="159.80086"
       x2="137.25594"
       y2="110.13892" />
    <linearGradient
       inkscape:collect="always"
       xlink:href="#linearGradient35"
       id="linearGradient17"
       gradientUnits="userSpaceOnUse"
       gradientTransform="matrix(0.61331945,0,0,0.61331945,185.65834,-83.903394)"
       x1="69.237434"
       y1="120.03365"
       x2="145.25612"
       y2="141.1792" />
    <linearGradient
       inkscape:collect="always"
       xlink:href="#linearGradient63"
       id="linearGradient46"
       gradientUnits="userSpaceOnUse"
       gradientTransform="matrix(1,0,0,0.96976139,205.48264,79.837042)"
       x1="106.10412"
       y1="174.41623"
       x2="137.21976"
       y2="44.106098"
       spreadMethod="pad" />
    <linearGradient
       inkscape:collect="always"
       xlink:href="#linearGradient50"
       id="linearGradient47"
       gradientUnits="userSpaceOnUse"
       gradientTransform="matrix(0.9312625,0,0,0.9661331,215.95948,77.495402)"
       x1="146.36218"
       y1="72.986649"
       x2="149.85789"
       y2="42.686623"
       spreadMethod="pad" />
  </defs>
  <g
     inkscape:label="Layer 1"
     inkscape:groupmode="layer"
     id="layer1"
     transform="translate(-270.97327,-116.39379)">
    <g
       id="g1"
       transform="translate(16.930752)">
      <path
         id="path10"
         style="opacity:1;fill:url(#linearGradient16);fill-opacity:1;stroke:#000000;stroke-width:1.85208;stroke-dasharray:none;stroke-dashoffset:0;stroke-opacity:1;paint-order:normal"
         d="m 311.58681,170.23648 a 39.6875,39.6875 0 0 0 -39.6875,39.68753 39.6875,39.6875 0 0 0 39.6875,39.6875 39.6875,39.6875 0 0 0 39.6875,-39.6875 39.6875,39.6875 0 0 0 -39.6875,-39.68753 z m 0,19.84377 a 19.84375,19.84375 0 0 1 19.84375,19.84376 19.84375,19.84375 0 0 1 -19.84375,19.84375 19.84375,19.84375 0 0 1 -19.84375,-19.84375 19.84375,19.84375 0 0 1 19.84375,-19.84376 z" />
      <g
         id="g17"
         transform="translate(125.4125,87.962692)"
         style="stroke-width:0;stroke-dasharray:none">
        <path
           id="path17"
           style="font-variation-settings:normal;opacity:1;fill:url(#linearGradient17);fill-opacity:1;stroke:#000000;stroke-width:0;stroke-linecap:butt;stroke-linejoin:miter;stroke-miterlimit:4;stroke-dasharray:none;stroke-dashoffset:0;stroke-opacity:1;paint-order:normal;stop-color:#000000;stop-opacity:1"
           d="m 225.92947,29.352473 a 19.84375,19.84375 0 0 0 -19.84375,19.843746 19.84375,19.84375 0 0 0 19.84375,19.84375 19.84375,19.84375 0 0 0 19.84375,-19.84375 19.84375,19.84375 0 0 0 -19.84375,-19.843746 z m 0,9.921876 a 9.9218693,9.9218693 0 0 1 9.92188,9.92187 9.9218693,9.9218693 0 0 1 -9.92188,9.92188 9.9218693,9.9218693 0 0 1 -9.92187,-9.92188 9.9218693,9.9218693 0 0 1 9.92187,-9.92187 z" />
      </g>
      <g
         id="g11"
         transform="translate(124.88334,87.969332)">
        <path
           id="path11"
           style="font-variation-settings:normal;opacity:1;fill:url(#linearGradient15);fill-opacity:1;stroke:#000000;stroke-width:1.85208;stroke-linecap:butt;stroke-linejoin:miter;stroke-miterlimit:4;stroke-dasharray:none;stroke-dashoffset:0;stroke-opacity:1;paint-order:normal;stop-color:#000000;stop-opacity:1"
           d="m 226.45864,29.352473 a 19.84375,19.84375 0 0 0 -19.84375,19.843746 19.84375,19.84375 0 0 0 19.84375,19.84375 19.84375,19.84375 0 0 0 19.84375,-19.84375 19.84375,19.84375 0 0 0 -19.84375,-19.843746 z m 0,9.921876 a 9.9218693,9.9218693 0 0 1 9.92188,9.92187 9.9218693,9.9218693 0 0 1 -9.92188,9.92188 9.9218693,9.9218693 0 0 1 -9.92187,-9.92188 9.9218693,9.9218693 0 0 1 9.92187,-9.92187 z" />
      </g>
      <path
         style="opacity:1;fill:#000000;stroke-width:1.85208;stroke-dasharray:none"
         d="m 312.56039,190.10402 a 29.765625,29.765625 0 0 1 1.97508,0.20309 19.84375,19.84375 0 0 0 -1.97508,-0.20309 z"
         id="path13" />
      <path
         id="path12"
         style="opacity:1;fill:url(#linearGradient13);fill-opacity:1;stroke:#000000;stroke-width:1.85208;stroke-dasharray:none;stroke-dashoffset:0;stroke-opacity:1;paint-order:normal"
         d="m 351.27429,117.31983 c -10.99337,0 -19.84375,8.85038 -19.84375,19.84377 v 40.71845 12.19823 19.84375 c 0,10.8254 -8.6726,19.61002 -19.44687,19.8236 v 19.84323 c 0.81472,-0.0145 1.62927,-0.0467 2.44016,-0.12815 20.74654,-1.48684 36.82567,-18.73894 36.85046,-39.53868 v -31.97118 -9.60045 -11.40757 c 0.0226,-0.003 0.0451,-0.005 0.0677,-0.008 v -29.69277 z" />
      <path
         id="path44"
         style="opacity:1;fill:url(#linearGradient46);fill-opacity:1;stroke:#000000;stroke-width:0;stroke-dasharray:none;stroke-dashoffset:0;stroke-opacity:1;paint-order:normal"
         d="m 308.76269,189.29239 c -15.25003,1.40947 -26.90663,13.81376 -26.94151,28.66961 0,15.94196 13.2798,30.68967 29.71886,30.68967 0.94751,-0.004 1.89427,-0.0524 2.83704,-0.14433 0.96766,-0.0672 1.92132,-0.17864 2.86752,-0.31121 l 0.44363,-18.39803 c -1.80771,0.52563 -3.72042,0.81586 -5.70456,0.81586 -5.79651,0 -11.50509,-2.28765 -15.47583,-6.40959 -3.53668,-3.67135 -5.66571,-8.88367 -5.70019,-13.89979 -0.0663,-9.6454 6.86422,-19.36909 17.95507,-21.01219 z"
         sodipodi:nodetypes="ccccccssscc" />
      <path
         id="path46"
         style="opacity:1;fill:url(#linearGradient47);fill-opacity:1;stroke:#000000;stroke-width:0;stroke-dasharray:none;stroke-dashoffset:0;stroke-opacity:1;paint-order:normal"
         d="m 351.72978,118.19321 c 6e-5,-7e-5 -0.80339,0.0193 -1.37582,0.0742 l 0.0155,8.16611 2.41279,0.0766 c 5.11793,0.5194 9.35477,5.58681 9.3557,10.8547 1.9e-4,4.57536 -5.09126,10.25192 -9.87686,10.6454 6.94589,-0.25598 14.26579,-8.08021 13.32856,-15.43832 0,-7.94116 -6.20526,-14.37879 -13.85981,-14.37879 z"
         sodipodi:nodetypes="cccccccsc" />
    </g>
  </g>
</svg>
